# xmcd CD database file
#
# Track frame offsets:
#	150
#	16457
#	35253
#	51835
#	66130
#	90239
#	107076
#	124313
#	141384
#
# Disc length: 2148 seconds
#
# Revision: 0
# Processed by: cddbd v1.5.2PL0 Copyright (c) Steve Scherf et al.
# Submitted via: CDex 1.70beta2
#
DISCID=77086209
DTITLE=Giles Hedley and the Aviators - Wake Up, It's Nearly Dark
DYEAR=2006
DGENRE=Blues
TTITLE0=Before I Commit A Crime (Burnett)
TTITLE1=Death Letter Blues (House)
TTITLE2=Dog (Hedley)
TTITLE3=Drop Down Mama (Estes)
TTITLE4=Shadows Falling (Hedley)
TTITLE5=the Same Thing (Dixon)
TTITLE6=Tell It To my Face (Hedley)
TTITLE7=Mama 'Tain't Long Fo' Day (McTell)
TTITLE8=Don't You Let 'em Down (Hedley)
EXTD=YEAR: 2006
EXTT0=
EXTT1=
EXTT2=
EXTT3=
EXTT4=
EXTT5=
EXTT6=
EXTT7=
EXTT8=
PLAYORDER=
